HIERARCHY
ROOT Hips
{
	OFFSET 0.00000 0.00000 0.00000
	CHANNELS 6 Xposition Yposition Zposition Zrotation Yrotation Xrotation 
	JOINT LHipJoint
	{
		OFFSET 0 0 0
		CHANNELS 3 Zrotation Yrotation Xrotation
		JOINT LeftHip
		{
			OFFSET 1.75344 -1.53157 0.77399
			CHANNELS 3 Zrotation Yrotation Xrotation
			JOINT LeftKnee
			{
				OFFSET 2.25415 -6.19323 0.00000
				CHANNELS 3 Zrotation Yrotation Xrotation
				JOINT LeftAnkle
				{
					OFFSET 2.30342 -6.32861 0.00000
					CHANNELS 3 Zrotation Yrotation Xrotation
					JOINT LeftToe
					{
						OFFSET 0.10958 -0.30108 1.49206
						CHANNELS 3 Zrotation Yrotation Xrotation
						End Site
						{
							OFFSET 0.00000 -0.00000 0.77783
						}
					}
				}
			}
		}
	}
	JOINT RHipJoint
	{
		OFFSET 0 0 0
		CHANNELS 3 Zrotation Yrotation Xrotation
		JOINT RightHip
		{
			OFFSET -1.81912 -1.53156 0.77399
			CHANNELS 3 Zrotation Yrotation Xrotation
			JOINT RightKnee
			{
				OFFSET -2.22882 -6.12365 0.00000
				CHANNELS 3 Zrotation Yrotation Xrotation
				JOINT RightAnkle
				{
					OFFSET -2.21943 -6.09785 0.00000
					CHANNELS 3 Zrotation Yrotation Xrotation
					JOINT RightToe
					{
						OFFSET -0.18931 -0.52012 1.59379
						CHANNELS 3 Zrotation Yrotation Xrotation
						End Site
						{
							OFFSET -0.00000 -0.00000 0.84686
						}
					}
				}
			}
		}
	}
	JOINT lowerback
	{
		OFFSET 0 0 0
		CHANNELS 3 Zrotation Yrotation Xrotation
		JOINT Chest
		{
			OFFSET -0.00200 1.66634 -0.14248
			CHANNELS 3 Zrotation Yrotation Xrotation
			JOINT Chest2
			{
				OFFSET -0.00875 1.64542 0.09514
				CHANNELS 3 Zrotation Yrotation Xrotation
				JOINT lowerneck
				{
					OFFSET 0 0 0
					CHANNELS 3 Zrotation Yrotation Xrotation
					JOINT Neck
					{
						OFFSET 0.02257 1.59605 0.00839
						CHANNELS 3 Zrotation Yrotation Xrotation
						JOINT Head
						{
							OFFSET -0.10214 1.57530 -0.23335
							CHANNELS 3 Zrotation Yrotation Xrotation
							End Site
							{
								OFFSET -0.03588 1.60717 -0.08062
							}
						}
					}
				}
				JOINT LeftCollar
				{
					OFFSET 0 0 0
					CHANNELS 3 Zrotation Yrotation Xrotation
					JOINT LeftShoulder
					{
						OFFSET 2.54983 1.10186 0.40078
CHANNELS 3 Zrotation Xrotation Yrotation
						JOINT LeftElbow
						{
OFFSET 0 -4.288400 0.000000
CHANNELS 3 Zrotation Xrotation Yrotation
							JOINT LeftWrist
							{
OFFSET 0 -3.065520 -0.000000
CHANNELS 3 Zrotation Xrotation Yrotation
								JOINT lhand
								{
									OFFSET 0 0 0
CHANNELS 3 Zrotation Xrotation Yrotation
									JOINT LFingers
									{
OFFSET 0 -0.753040 0.000000
CHANNELS 3 Zrotation Xrotation Yrotation
										End Site
										{
OFFSET 0 -0.607120 0.000000
										}
									}
								}
								JOINT LThumb
								{
OFFSET 0 0.000000 0.000000
CHANNELS 3 Zrotation Xrotation Yrotation
									End Site
									{
OFFSET 0 -0.616390 0.616390
									}
								}
							}
						}
					}
				}
				JOINT RightCollar
				{
					OFFSET 0 0 0
					CHANNELS 3 Zrotation Yrotation Xrotation
					JOINT RightShoulder
					{
						OFFSET -2.60909 1.35448 0.21802
CHANNELS 3 Zrotation Xrotation Yrotation
						JOINT RightElbow
						{
OFFSET 0 -4.521720 -0.000000
CHANNELS 3 Zrotation Xrotation Yrotation
							JOINT RightWrist
							{
OFFSET 0 -2.891400 0.000000
CHANNELS 3 Zrotation Xrotation Yrotation
								JOINT rhand
								{
									OFFSET 0 0 0
CHANNELS 3 Zrotation Xrotation Yrotation
									JOINT RFingers
									{
OFFSET 0 -0.680540 0.000000
CHANNELS 3 Zrotation Xrotation Yrotation
										End Site
										{
OFFSET 0 -0.548670 0.000000
										}
									}
								}
								JOINT RThumb
								{
OFFSET 0 0.000000 0.000000
CHANNELS 3 Zrotation Xrotation Yrotation
									End Site
									{
OFFSET 0 -0.557050 0.557050
									}
								}
							}
						}
					}
				}
			}
		}
	}
}
MOTION
Frames: 7
Frame Time: 0.008333333333333333
7.897400 15.203400 40.018000 -179.801000 -1.162000 -179.756000 0.000000 0.000000 0.000000 -24.818600 -27.192300 2.209100 2.404800 9.662800 27.891400 2.509800 6.282000 -32.652800 0.516300 -4.605400 -12.786300 0.000000 0.000000 0.000000 28.971100 13.610100 0.486500 -2.645600 -10.097900 29.294300 -5.400800 -15.023500 -50.264500 -3.993200 -12.151300 36.269500 0.514900 0.603300 7.095100 0.135100 0.779000 -4.680100 -0.254000 0.310200 -8.933000 -2.925900 -0.514000 -9.527500 2.292200 -0.487200 4.650700 1.242900 -0.208100 3.208000 0.000000 -0.000000 0.000000 8.048100 31.431000 -31.888800 18.873000 -29.260500 4.968600 -21.357200 25.317900 18.714300 0.000000 0.000000 0.000000 -7.125000 0.000000 0.000000 -30.495400 11.446100 -28.316200 0.000000 -0.000000 0.000000 -15.322700 26.208500 40.049600 -17.313700 -27.269500 -4.230100 -11.138100 23.730200 50.451300 0.000000 0.000000 0.000000 7.125000 0.000000 -0.000000 58.243500 74.448300 -43.738700
7.869538 15.148270 40.052459 -179.342364 -0.805062 -179.482252 0.000000 0.000000 0.000000 -23.809468 -26.512064 0.052206 2.752499 10.283076 29.898588 2.527210 5.935495 -32.575757 0.716275 -5.407818 -15.075642 0.000000 0.000000 0.000000 29.463945 16.824826 1.505852 -2.283811 -9.433661 27.161532 -3.566851 -18.810125 -45.683908 -3.304728 -11.094329 32.689347 1.229057 0.639599 6.994010 0.145547 0.903599 -4.676346 -0.660730 0.326932 -8.857943 -3.271495 -0.912959 -8.550610 2.574224 -1.021122 2.883882 1.351843 -0.476880 2.444637 0.000000 0.000000 0.000000 5.467411 30.963547 -22.779662 16.460314 -26.140296 3.846784 -7.053500 26.441000 30.925756 0.000000 0.000000 0.000000 -7.125000 0.000000 0.000000 -21.596777 0.667234 -23.056834 0.000000 0.000000 0.000000 -10.799140 26.978774 30.723723 -15.177910 -24.392800 -3.299393 -0.373560 20.514226 50.460001 0.000000 0.000000 0.000000 7.125000 0.000000 0.000000 65.562062 70.563682 -45.739974
7.845968 15.108357 40.103949 -179.413372 -0.633472 -179.795207 0.000000 0.000000 0.000000 -24.480332 -27.614255 0.528021 2.893436 10.520537 30.679402 2.684543 6.349370 -33.676062 0.413783 -4.128567 -11.438746 0.000000 0.000000 0.000000 29.095749 16.039776 1.242422 -2.182942 -9.237106 26.539926 -2.029071 -22.513313 -42.297161 -1.618936 -8.021614 22.780361 1.149871 0.674698 7.587029 0.109838 0.956126 -4.665070 -0.670390 0.356715 -9.195353 -3.205769 -1.125428 -7.403808 2.730306 -1.351635 1.312562 1.364932 -0.649404 1.727643 0.000000 0.000000 0.000000 3.985824 28.529595 -15.423842 15.018647 -24.171984 3.233665 -8.334887 30.497431 30.821341 0.000000 0.000000 0.000000 -7.125000 0.000000 0.000000 -22.285415 0.787947 -23.859842 0.000000 0.000000 0.000000 -5.218639 25.182297 14.419525 -13.152831 -21.510433 -2.509210 4.826179 23.778198 50.379866 0.000000 0.000000 0.000000 7.125000 0.000000 0.000000 68.852708 68.767728 -46.434612
7.822667 15.114474 40.193222 -179.737731 -0.626827 -179.632816 0.000000 0.000000 0.000000 -24.775440 -28.125041 0.244806 2.868480 10.479085 30.542407 2.687209 6.339157 -33.685651 0.422310 -4.165346 -11.543207 0.000000 0.000000 0.000000 28.400472 16.114300 0.548120 -2.208735 -9.287992 26.700279 -2.028825 -22.553932 -42.335029 -1.642645 -8.070171 22.932062 0.837797 0.617523 7.657948 0.006620 0.831018 -4.766177 -0.586715 0.308450 -9.352879 -3.340408 -1.203397 -6.918341 3.123791 -1.467783 1.111928 1.510163 -0.702177 1.587517 0.000000 0.000000 0.000000 4.811617 22.517218 -9.122889 13.013373 -21.306633 2.458271 -13.939841 41.748540 32.989395 0.000000 0.000000 0.000000 -7.125000 0.000000 0.000000 -25.001249 -1.230954 -28.363826 0.000000 0.000000 0.000000 -4.404283 20.769337 8.990839 -11.208950 -18.607702 -1.842092 11.797463 24.751431 51.510076 0.000000 0.000000 0.000000 7.125000 0.000000 0.000000 75.918721 66.892065 -50.435836
7.796837 15.118404 40.273118 -179.500372 -0.163548 -179.615137 0.000000 0.000000 0.000000 -24.740617 -28.914237 0.358524 2.862633 10.469271 30.510154 2.839489 6.658068 -34.682638 0.255925 -3.252474 -8.982575 0.000000 0.000000 0.000000 28.480614 16.745502 0.350851 -2.201238 -9.273111 26.653517 -2.021995 -22.031141 -41.818797 -1.835590 -8.514433 24.288078 1.206214 0.579618 7.203318 0.150965 0.820207 -4.786579 -0.632820 0.283224 -9.103784 -3.841145 -1.399668 -7.290119 3.241674 -1.676273 2.515563 1.637853 -0.795617 2.131544 0.000000 0.000000 0.000000 8.365700 15.734065 -9.562689 12.705259 -20.853728 2.347412 -15.760897 46.756041 34.017650 0.000000 0.000000 0.000000 -7.125000 0.000000 0.000000 -25.813296 -2.237260 -29.979761 0.000000 0.000000 0.000000 -7.543484 13.927107 10.789307 -10.148613 -16.971540 -1.518146 12.659731 28.228583 51.452915 0.000000 0.000000 0.000000 7.125000 0.000000 0.000000 76.337040 66.595171 -50.429634
7.787098 15.130390 40.377683 -179.486541 1.155084 -179.338419 0.000000 0.000000 0.000000 -24.431667 -28.747451 -0.281495 2.828568 10.412157 30.322077 2.916996 7.224129 -35.386737 0.364378 -3.870703 -10.713964 0.000000 0.000000 0.000000 28.278810 17.941441 -0.177951 -2.215515 -9.301159 26.742062 -1.880843 -22.047576 -41.202266 -1.441067 -7.588314 21.471016 1.305147 0.892864 6.847859 -0.090326 1.455395 -4.886300 -1.047318 0.674061 -8.984156 -3.522556 -1.721769 -8.162827 3.102882 -2.120778 4.342651 1.524584 -1.007345 2.916733 0.000000 0.000000 0.000000 14.408107 5.454203 -10.086466 12.036395 -19.859078 2.114690 -8.501310 48.767035 36.047092 0.000000 0.000000 0.000000 -7.125000 0.000000 0.000000 -22.161220 -4.100725 -25.627415 0.000000 0.000000 0.000000 -11.879426 5.162592 12.654651 -10.194397 -17.043100 -1.531420 11.443730 31.041805 51.571046 0.000000 0.000000 0.000000 7.125000 0.000000 0.000000 75.771229 67.021509 -50.508472
7.781866 15.123657 40.480480 -179.352027 0.442550 -179.851868 0.000000 0.000000 0.000000 -24.626290 -29.935357 0.553068 2.804092 10.371014 30.186614 3.124187 6.942134 -36.326979 0.231055 -3.089581 -8.528722 0.000000 0.000000 0.000000 28.725573 18.151143 0.408807 -2.237695 -9.344612 26.879334 -2.582849 -20.500146 -42.899912 -2.317546 -9.497850 27.365886 1.264001 0.506285 6.662809 0.045320 0.929110 -4.715127 -0.799907 0.425065 -8.704466 -3.737604 -1.821556 -9.515797 3.166701 -2.262913 7.785353 1.467388 -1.069646 4.046700 0.000000 0.000000 0.000000 22.226359 -6.473686 -13.664205 12.088693 -19.937439 2.132406 -4.018618 46.596235 37.904158 0.000000 0.000000 0.000000 -7.125000 0.000000 0.000000 -19.915761 -6.040426 -23.284627 0.000000 0.000000 0.000000 -19.635093 -6.080502 19.960381 -10.446649 -17.435186 -1.606208 2.769185 37.990394 50.228888 0.000000 0.000000 0.000000 7.125000 0.000000 0.000000 67.103353 69.397709 -45.676134
